<svg width="51" height="17" viewBox="0 0 51 17" fill="none" xmlns="http://www.w3.org/2000/svg">
    <path d="M8.6666 16.6667V0L0.333262 8.33333L8.6666 16.6667Z" fill="#26A1A1" />
    <path
        d="M22.7561 16.832C22.3081 16.832 21.8601 16.808 21.4121 16.76C20.9641 16.696 20.5081 16.6 20.0441 16.472V15.128C21.4041 15.128 22.5881 14.848 23.5961 14.288C24.6041 13.728 25.3801 12.952 25.9241 11.96C26.4841 10.952 26.7641 9.8 26.7641 8.504C26.7641 7.192 26.4841 6.04 25.9241 5.048C25.3801 4.056 24.6041 3.28 23.5961 2.72C22.6041 2.16 21.4201 1.88 20.0441 1.88V0.535999C20.9561 0.279999 21.8601 0.151999 22.7561 0.151999C23.9881 0.151999 25.1241 0.359999 26.1641 0.775999C27.2201 1.176 28.1241 1.744 28.8761 2.48C29.6441 3.2 30.2361 4.072 30.6521 5.096C31.0841 6.12 31.3001 7.256 31.3001 8.504C31.3001 10.136 30.9321 11.584 30.1961 12.848C29.4761 14.096 28.4761 15.072 27.1961 15.776C25.9161 16.48 24.4361 16.832 22.7561 16.832ZM22.3001 15.896C23.4361 15.896 24.4761 15.704 25.4201 15.32C26.3641 14.92 27.1721 14.384 27.8441 13.712C28.5321 13.04 29.0601 12.256 29.4281 11.36C29.8121 10.464 30.0041 9.512 30.0041 8.504C30.0041 7.48 29.8121 6.52 29.4281 5.624C29.0601 4.728 28.5321 3.944 27.8441 3.272C27.1721 2.6 26.3641 2.072 25.4201 1.688C24.4761 1.304 23.4361 1.112 22.3001 1.112C23.4681 1.352 24.4841 1.824 25.3481 2.528C26.2121 3.232 26.8841 4.096 27.3641 5.12C27.8441 6.144 28.0841 7.272 28.0841 8.504C28.0841 9.72 27.8441 10.848 27.3641 11.888C26.8841 12.912 26.2121 13.776 25.3481 14.48C24.4841 15.168 23.4681 15.64 22.3001 15.896Z"
        fill="#26A1A1" />
    <path d="M42.6667 16.6667V0L51 8.33333L42.6667 16.6667Z" fill="#26A1A1" />
</svg>