<svg width="12" height="17" viewBox="0 0 12 17" fill="none" xmlns="http://www.w3.org/2000/svg">
    <path
        d="M2.75611 16.832C2.30811 16.832 1.86011 16.808 1.41211 16.76C0.964113 16.696 0.508113 16.6 0.0441132 16.472V15.128C1.40411 15.128 2.58811 14.848 3.59611 14.288C4.60411 13.728 5.38011 12.952 5.92411 11.96C6.48411 10.952 6.76411 9.8 6.76411 8.504C6.76411 7.192 6.48411 6.04 5.92411 5.048C5.38011 4.056 4.60411 3.28 3.59611 2.72C2.60411 2.16 1.42011 1.88 0.0441132 1.88V0.535999C0.956113 0.279999 1.86011 0.151999 2.75611 0.151999C3.98811 0.151999 5.12411 0.359999 6.16411 0.775999C7.22011 1.176 8.12411 1.744 8.87611 2.48C9.64411 3.2 10.2361 4.072 10.6521 5.096C11.0841 6.12 11.3001 7.256 11.3001 8.504C11.3001 10.136 10.9321 11.584 10.1961 12.848C9.47611 14.096 8.47611 15.072 7.19611 15.776C5.91611 16.48 4.43611 16.832 2.75611 16.832ZM2.30011 15.896C3.43611 15.896 4.47611 15.704 5.42011 15.32C6.36411 14.92 7.17211 14.384 7.84411 13.712C8.53211 13.04 9.06011 12.256 9.42811 11.36C9.81211 10.464 10.0041 9.512 10.0041 8.504C10.0041 7.48 9.81211 6.52 9.42811 5.624C9.06011 4.728 8.53211 3.944 7.84411 3.272C7.17211 2.6 6.36411 2.072 5.42011 1.688C4.47611 1.304 3.43611 1.112 2.30011 1.112C3.46811 1.352 4.48411 1.824 5.34811 2.528C6.21211 3.232 6.88411 4.096 7.36411 5.12C7.84411 6.144 8.08411 7.272 8.08411 8.504C8.08411 9.72 7.84411 10.848 7.36411 11.888C6.88411 12.912 6.21211 13.776 5.34811 14.48C4.48411 15.168 3.46811 15.64 2.30011 15.896Z"
        fill="#26A1A1" />
</svg>