<svg width="13" height="22" viewBox="0 0 13 22" fill="none" xmlns="http://www.w3.org/2000/svg">
    <path
        d="M12.4232 14.176C12.4232 15.008 12.2072 15.792 11.7752 16.528C11.3592 17.248 10.7352 17.848 9.90319 18.328C9.08719 18.792 8.11919 19.064 6.99919 19.144V21.088H5.46319V19.12C3.86319 18.976 2.57519 18.496 1.59919 17.68C0.623186 16.848 0.119186 15.728 0.0871856 14.32H3.68719C3.78319 15.472 4.37519 16.168 5.46319 16.408V11.824C4.31119 11.536 3.38319 11.248 2.67919 10.96C1.97519 10.672 1.36719 10.208 0.855186 9.568C0.343186 8.928 0.0871856 8.056 0.0871856 6.952C0.0871856 5.56 0.583186 4.424 1.57519 3.544C2.58319 2.664 3.87919 2.16 5.46319 2.032V0.0879989H6.99919V2.032C8.53519 2.16 9.75919 2.624 10.6712 3.424C11.5992 4.224 12.1192 5.328 12.2312 6.736H8.60719C8.55919 6.272 8.39119 5.872 8.10319 5.536C7.83119 5.184 7.46319 4.936 6.99919 4.792V9.328C8.19919 9.632 9.14319 9.928 9.83119 10.216C10.5352 10.488 11.1432 10.944 11.6552 11.584C12.1672 12.208 12.4232 13.072 12.4232 14.176ZM3.59119 6.784C3.59119 7.312 3.75119 7.744 4.07119 8.08C4.39119 8.4 4.85519 8.664 5.46319 8.872V4.72C4.88719 4.8 4.43119 5.016 4.09519 5.368C3.75919 5.72 3.59119 6.192 3.59119 6.784ZM6.99919 16.456C7.60719 16.344 8.07919 16.096 8.41519 15.712C8.76719 15.328 8.94319 14.864 8.94319 14.32C8.94319 13.792 8.77519 13.368 8.43919 13.048C8.10319 12.728 7.62319 12.464 6.99919 12.256V16.456Z"
        fill="#FE6309" />
</svg>