<svg width="53" height="22" viewBox="0 0 53 22" fill="none" xmlns="http://www.w3.org/2000/svg">
    <path d="M8.66663 18.6667V2L0.333293 10.3333L8.66663 18.6667Z" fill="#FE6309" />
    <path
        d="M32.4232 14.176C32.4232 15.008 32.2072 15.792 31.7752 16.528C31.3592 17.248 30.7352 17.848 29.9032 18.328C29.0872 18.792 28.1192 19.064 26.9992 19.144V21.088H25.4632V19.12C23.8632 18.976 22.5752 18.496 21.5992 17.68C20.6232 16.848 20.1192 15.728 20.0872 14.32H23.6872C23.7832 15.472 24.3752 16.168 25.4632 16.408V11.824C24.3112 11.536 23.3832 11.248 22.6792 10.96C21.9752 10.672 21.3672 10.208 20.8552 9.568C20.3432 8.928 20.0872 8.056 20.0872 6.952C20.0872 5.56 20.5832 4.424 21.5752 3.544C22.5832 2.664 23.8792 2.16 25.4632 2.032V0.0879989H26.9992V2.032C28.5352 2.16 29.7592 2.624 30.6712 3.424C31.5992 4.224 32.1192 5.328 32.2312 6.736H28.6072C28.5592 6.272 28.3912 5.872 28.1032 5.536C27.8312 5.184 27.4632 4.936 26.9992 4.792V9.328C28.1992 9.632 29.1432 9.928 29.8312 10.216C30.5352 10.488 31.1432 10.944 31.6552 11.584C32.1672 12.208 32.4232 13.072 32.4232 14.176ZM23.5912 6.784C23.5912 7.312 23.7512 7.744 24.0712 8.08C24.3912 8.4 24.8552 8.664 25.4632 8.872V4.72C24.8872 4.8 24.4312 5.016 24.0952 5.368C23.7592 5.72 23.5912 6.192 23.5912 6.784ZM26.9992 16.456C27.6072 16.344 28.0792 16.096 28.4152 15.712C28.7672 15.328 28.9432 14.864 28.9432 14.32C28.9432 13.792 28.7752 13.368 28.4392 13.048C28.1032 12.728 27.6232 12.464 26.9992 12.256V16.456Z"
        fill="#FE6309" />
    <path d="M44.6667 18.6667V2L53.0001 10.3333L44.6667 18.6667Z" fill="#FE6309" />
</svg>